<svg xmlns="http://www.w3.org/2000/svg" viewBox="0 0 24 24" fill="none" stroke="#ffffff" stroke-width="2" stroke-linecap="round" stroke-linejoin="round" class="feather feather-brain">
  <circle cx="12" cy="12" r="10" fill="#3b82f6"/>
  <path d="M9.5 2.5C10 2 11 2 12 2s2 0 2.5.5M19.5 9.5C20 10 20 11 20 12s0 2-.5 2.5M14.5 21.5c-.5.5-1.5.5-2.5.5s-2 0-2.5-.5M4.5 14.5C4 14 4 13 4 12s0-2 .5-2.5" stroke="#ffffff"/>
  <path d="M8 8a2 2 0 1 0 4 0 2 2 0 0 0-4 0zM16 8a2 2 0 1 0 4 0 2 2 0 0 0-4 0zM12 16a2 2 0 1 0 4 0 2 2 0 0 0-4 0zM8 16a2 2 0 1 0 4 0 2 2 0 0 0-4 0z" stroke="#ffffff"/>
  <path d="M10 12h4" stroke="#ffffff"/>
</svg>